<?xml version="1.0" encoding="UTF-8" standalone="no"?>
<svg
   width="35"
   height="35"
   viewBox="0 0 16 16"
   version="1.1"
   id="svg1"
   sodipodi:docname="social-whatsapp.svg"
   inkscape:version="1.4 (e7c3feb100, 2024-10-09)"
   xmlns:inkscape="http://www.inkscape.org/namespaces/inkscape"
   xmlns:sodipodi="http://sodipodi.sourceforge.net/DTD/sodipodi-0.dtd"
   xmlns="http://www.w3.org/2000/svg"
   xmlns:svg="http://www.w3.org/2000/svg">
  <defs
     id="defs1" />
  <sodipodi:namedview
     id="namedview1"
     pagecolor="#505050"
     bordercolor="#ffffff"
     borderopacity="1"
     inkscape:showpageshadow="0"
     inkscape:pageopacity="0"
     inkscape:pagecheckerboard="1"
     inkscape:deskcolor="#505050"
     inkscape:zoom="17.914286"
     inkscape:cx="17.472089"
     inkscape:cy="17.5"
     inkscape:window-width="1600"
     inkscape:window-height="836"
     inkscape:window-x="0"
     inkscape:window-y="0"
     inkscape:window-maximized="1"
     inkscape:current-layer="svg1" />
  <rect
     width="16"
     height="16"
     fill="none"
     id="rect1" />
  <path
     fill="#ffffff"
     d="M 14.772475,3.729252 C 12.392665,0.03997731 7.5191798,-1.0531411 3.7501986,1.2355755 0.07231061,3.5242922 -1.111901,8.5116449 1.2679088,12.189533 l 0.1935731,0.296053 -0.79706549,2.983302 2.98330239,-0.797066 0.2960528,0.193574 c 1.2866915,0.694586 2.6872495,1.093118 4.0764208,1.093118 1.4916511,0 2.9833016,-0.398532 4.2699936,-1.195598 3.677887,-2.391197 4.771006,-7.2760695 2.482289,-11.0564373 z m -2.083756,7.674602 c -0.398533,0.592106 -0.899546,0.990639 -1.594131,1.093118 -0.398533,0 -0.899546,0.193574 -2.8808226,-0.592105 C 6.5285412,11.107801 5.1279832,9.809723 4.1373447,8.3180719 3.5452389,7.6234862 3.2377994,6.7239409 3.1467061,5.8243956 3.1467061,5.0273301 3.442759,4.3327444 3.9437716,3.8317317 4.1373447,3.6381588 4.3423044,3.5356789 4.5358775,3.5356789 h 0.5010126 c 0.193573,0 0.3985328,0 0.5010125,0.3985327 0.1935731,0.5010126 0.6945857,1.6966109 0.6945857,1.7990908 0.1024796,0.1024795 0.056934,0.8653854 -0.3985327,1.2980781 -0.2505064,0.2846662 -0.296053,0.2960528 -0.1935731,0.5010126 0.3985327,0.5921057 0.8995454,1.1955982 1.3891713,1.6966108 0.5921059,0.5010127 1.1955983,0.8995451 1.890184,1.1955981 0.193573,0.10248 0.3985327,0.10248 0.5010125,-0.10248 0.1024799,-0.193573 0.5921057,-0.6945853 0.7970657,-0.8995451 0.193572,-0.193573 0.296052,-0.193573 0.501012,-0.1024798 l 1.594132,0.7970659 c 0.193572,0.102479 0.398532,0.193573 0.501011,0.296053 0.102477,0.296053 0.102477,0.694585 -0.102476,0.990638 z"
     id="path1"
     style="stroke-width:1.13867" />
</svg>
