<?xml version="1.0" encoding="UTF-8" standalone="no"?>
<svg
   width="44"
   height="44"
   viewBox="0 0 256 256"
   version="1.1"
   id="svg6"
   sodipodi:docname="icons--qwik.svg"
   xml:space="preserve"
   inkscape:version="1.4 (e7c3feb100, 2024-10-09)"
   xmlns:inkscape="http://www.inkscape.org/namespaces/inkscape"
   xmlns:sodipodi="http://sodipodi.sourceforge.net/DTD/sodipodi-0.dtd"
   xmlns="http://www.w3.org/2000/svg"
   xmlns:svg="http://www.w3.org/2000/svg"><defs
     id="defs7" /><sodipodi:namedview
     id="namedview6"
     pagecolor="#505050"
     bordercolor="#ffffff"
     borderopacity="1"
     inkscape:showpageshadow="0"
     inkscape:pageopacity="0"
     inkscape:pagecheckerboard="1"
     inkscape:deskcolor="#505050"
     inkscape:zoom="7.125"
     inkscape:cx="30.035088"
     inkscape:cy="20.701754"
     inkscape:window-width="1600"
     inkscape:window-height="836"
     inkscape:window-x="0"
     inkscape:window-y="0"
     inkscape:window-maximized="1"
     inkscape:current-layer="svg6" /><g
     fill="none"
     id="g6"><rect
       width="256"
       height="256"
       fill="#242938"
       rx="60"
       id="rect1"
       style="fill:#fbeefd;fill-opacity:1" /><defs
       id="defs6"><linearGradient
         id="skillIconsSupabaseDark0"
         x1="127.529"
         x2="198.661"
         y1="125.299"
         y2="155.132"
         gradientUnits="userSpaceOnUse"><stop
           stop-color="#249361"
           id="stop3" /><stop
           offset="1"
           stop-color="#3ECF8E"
           id="stop4" /></linearGradient><linearGradient
         id="skillIconsSupabaseDark1"
         x1="95.993"
         x2="128.433"
         y1="82.12"
         y2="143.187"
         gradientUnits="userSpaceOnUse"><stop
           id="stop5" /><stop
           offset="1"
           stop-opacity="0"
           id="stop6" /></linearGradient><clipPath
         id="skillIconsSupabaseDark2"><path
           fill="#fff"
           d="M32 28h192.92v200H32z"
           id="path6" /></clipPath></defs></g><g
     id="g7"
     transform="matrix(0.70513066,0,0,0.70513066,37.743509,32.261988)"><path
       fill="#18b6f6"
       d="m 224.803,271.548 -48.76,-48.483 -0.744,0.107 V 222.64 L 71.606,120.252 97.156,95.585 82.146,9.465 10.924,97.712 c -12.136,12.226 -14.372,32.109 -5.642,46.781 l 44.5,73.788 c 6.813,11.376 19.163,18.18 32.47,18.074 l 22.038,-0.213 z"
       id="path1-5" /><path
       fill="#ac7ef4"
       d="m 251.414,96.01 -9.795,-18.075 -5.11,-9.25 -2.023,-3.615 -0.212,0.213 L 207.445,18.82 C 200.738,7.125 188.176,-0.105 174.55,0 L 151.023,0.639 80.865,0.852 C 67.558,0.958 55.421,7.975 48.714,19.352 L 6.024,103.984 82.353,9.25 l 100.073,109.937 -17.779,17.968 10.646,86.015 0.107,-0.213 v 0.213 h -0.213 l 0.213,0.212 8.304,8.081 40.348,39.445 c 1.704,1.595 4.472,-0.318 3.3,-2.339 l -24.911,-49.014 43.436,-80.273 1.383,-1.595 c 0.533,-0.638 1.065,-1.276 1.491,-1.914 8.517,-11.589 9.688,-27.112 2.662,-39.764"
       id="path2" /><path
       fill="#ffffff"
       d="M 182.746,118.763 82.353,9.358 96.619,95.053 71.069,119.826 175.08,223.065 165.712,137.369 Z"
       id="path3" /></g></svg>
