<?xml version="1.0" encoding="UTF-8" standalone="no"?>
<svg
   width="44"
   height="44"
   viewBox="0 0 256 256"
   version="1.1"
   id="svg6"
   sodipodi:docname="icons--pocketbase-dark.svg"
   xml:space="preserve"
   inkscape:version="1.4 (e7c3feb100, 2024-10-09)"
   xmlns:inkscape="http://www.inkscape.org/namespaces/inkscape"
   xmlns:sodipodi="http://sodipodi.sourceforge.net/DTD/sodipodi-0.dtd"
   xmlns="http://www.w3.org/2000/svg"
   xmlns:svg="http://www.w3.org/2000/svg"><defs
     id="defs7" /><sodipodi:namedview
     id="namedview6"
     pagecolor="#505050"
     bordercolor="#ffffff"
     borderopacity="1"
     inkscape:showpageshadow="0"
     inkscape:pageopacity="0"
     inkscape:pagecheckerboard="1"
     inkscape:deskcolor="#505050"
     inkscape:zoom="7.125"
     inkscape:cx="30.035088"
     inkscape:cy="20.701754"
     inkscape:window-width="1600"
     inkscape:window-height="836"
     inkscape:window-x="0"
     inkscape:window-y="0"
     inkscape:window-maximized="1"
     inkscape:current-layer="svg6" /><g
     fill="none"
     id="g6"><rect
       width="256"
       height="256"
       fill="#242938"
       rx="60"
       id="rect1" /><defs
       id="defs6"><linearGradient
         id="skillIconsSupabaseDark0"
         x1="127.529"
         x2="198.661"
         y1="125.299"
         y2="155.132"
         gradientUnits="userSpaceOnUse"><stop
           stop-color="#249361"
           id="stop3" /><stop
           offset="1"
           stop-color="#3ECF8E"
           id="stop4" /></linearGradient><linearGradient
         id="skillIconsSupabaseDark1"
         x1="95.993"
         x2="128.433"
         y1="82.12"
         y2="143.187"
         gradientUnits="userSpaceOnUse"><stop
           id="stop5" /><stop
           offset="1"
           stop-opacity="0"
           id="stop6" /></linearGradient><clipPath
         id="skillIconsSupabaseDark2"><path
           fill="#fff"
           d="M32 28h192.92v200H32z"
           id="path6" /></clipPath></defs></g><g
     id="g7"
     transform="matrix(0.6278367,0,0,0.6278367,47.637216,47.636902)"><path
       fill="#ffffff"
       d="M 9.46,170.336 A 8.467,8.467 0 0 1 0.992,161.869 V 9.459 A 8.467,8.467 0 0 1 9.46,0.992 h 152.41 a 8.467,8.467 0 0 1 8.467,8.467 v 76.205 h 76.205 a 8.467,8.467 0 0 1 8.467,8.467 v 152.41 a 8.467,8.467 0 0 1 -8.467,8.467 H 94.13 a 8.467,8.467 0 0 1 -8.467,-8.467 v -76.205 z"
       id="path1-3" /><path
       fill="#16161a"
       d="M 161.869,0 H 9.459 A 9.46,9.46 0 0 0 0,9.46 v 152.409 l 0.004,0.27 a 9.46,9.46 0 0 0 9.455,9.19 l 75.213,-0.001 v 75.213 A 9.46,9.46 0 0 0 94.132,256 H 246.54 a 9.46,9.46 0 0 0 9.459,-9.46 V 94.132 l -0.004,-0.27 a 9.46,9.46 0 0 0 -9.455,-9.19 H 171.327 V 9.46 A 9.46,9.46 0 0 0 161.868,0 m 0,1.984 a 7.475,7.475 0 0 1 7.475,7.475 v 76.205 c 0,0.548 0.444,0.992 0.992,0.992 h 76.205 a 7.475,7.475 0 0 1 7.475,7.475 v 152.41 a 7.474,7.474 0 0 1 -7.475,7.475 H 94.13 a 7.475,7.475 0 0 1 -7.475,-7.475 v -76.205 a 0.99,0.99 0 0 0 -0.992,-0.992 H 9.46 A 7.475,7.475 0 0 1 1.985,161.869 V 9.459 A 7.475,7.475 0 0 1 9.46,1.984 Z"
       id="path2-6" /><path
       fill="#16161a"
       d="m 57.44,128 a 7.056,7.056 0 0 1 -7.056,-7.056 V 43.328 a 7.056,7.056 0 0 1 7.056,-7.056 h 26.482 q 7.694,0 14.373,1.548 6.824,1.407 11.76,4.924 5.082,3.376 7.985,9.144 2.904,5.628 2.904,13.928 0,8.02 -3.049,13.928 -2.904,5.91 -7.985,9.708 -5.081,3.798 -11.76,5.628 -6.679,1.829 -14.228,1.829 h -5.14 a 7.056,7.056 0 0 0 -7.056,7.055 v 16.98 A 7.056,7.056 0 0 1 64.67,128 Z M 71.726,73.392 a 7.056,7.056 0 0 0 7.056,7.056 h 3.833 q 17.422,0 17.422,-14.632 0,-7.175 -4.5,-10.13 -4.356,-2.953 -12.922,-2.953 h -3.833 a 7.056,7.056 0 0 0 -7.056,7.055 z m 70.386,146.336 a 7.056,7.056 0 0 1 -7.056,-7.056 V 135.056 A 7.056,7.056 0 0 1 142.112,128 h 24.61 q 7.373,0 13.59,1.125 6.363,0.986 10.99,3.658 4.626,2.674 7.229,7.034 2.748,4.362 2.747,10.975 0,3.094 -1.012,6.19 -0.868,3.095 -2.892,5.767 -2.024,2.674 -5.06,4.784 -2.94,2.044 -6.964,3.03 a 0.35,0.35 0 0 0 -0.266,0.339 c 0,0.167 0.121,0.31 0.285,0.341 q 9.91,1.85 15.042,6.982 5.205,5.205 5.205,14.491 0,7.035 -2.747,12.099 -2.748,5.064 -7.664,8.441 -4.915,3.236 -11.567,4.924 -6.505,1.548 -14.17,1.548 z m 14.199,-61.924 a 7.056,7.056 0 0 0 7.056,7.056 h 2.342 q 7.809,0 11.278,-2.955 3.469,-2.955 3.47,-8.3 0,-5.066 -3.615,-7.175 -3.47,-2.25 -10.988,-2.251 h -2.487 a 7.056,7.056 0 0 0 -7.056,7.056 z m 0,38.69 a 7.056,7.056 0 0 0 7.056,7.055 h 4.366 q 17.062,0 17.062,-12.38 0,-6.05 -4.193,-8.723 -4.05,-2.673 -12.869,-2.673 h -4.366 a 7.056,7.056 0 0 0 -7.056,7.056 z"
       id="path3-7" /></g></svg>
